# xmcd
#
# Track frame offsets:
#	150
#	30290
#	58629
#	108893
#	134623
#	171824
#	199940
#	229063
#
# Disc length: 3356 seconds
#
# Revision: 1
# Processed by: cddbd v1.5.2PL0 Copyright (c) Steve Scherf et al.
# Submitted via: audiograbber 1.83.01
#
DISCID=650d1a08
DTITLE=Grateful Dead - 87-11-07 Henry J Kaiser Convention Centre, Oakland Ca
DYEAR=1900
DGENRE=
TTITLE0=Hey Pocky Way
TTITLE1=Jack Straw
TTITLE2=Row Jimmy
TTITLE3=When I Paint My Masterpiece
TTITLE4=Dupree's Diamond Blues
TTITLE5=Box Of Rain
TTITLE6=Cassidy
TTITLE7=Might As Well
EXTD=
EXTT0=
EXTT1=
EXTT2=
EXTT3=
EXTT4=
EXTT5=
EXTT6=
EXTT7=
PLAYORDER=
